<?xml version="1.0" encoding="UTF-8"?><svg xmlns="http://www.w3.org/2000/svg" xmlns:xlink="http://www.w3.org/1999/xlink" version="1.1" id="Layer_1" x="0px" y="0px" viewBox="0 0 48 48" xml:space="preserve"><path d="M23.5 42.5s-7.669-7.644-10-10c-.391-.395-.998-1.105-1.003-1.11A15.446 15.446 0 0 1 8.5 21c0-8.56 6.94-15.5 15.5-15.5S39.5 12.44 39.5 21a15.424 15.424 0 0 1-2.5 8.444l-.037.056" fill="none" stroke="#0288D1" stroke-width="5" stroke-linecap="round" stroke-miterlimit="10"/><path d="M30.625 35.625s-8.451-8.542-10.418-10.628a15.198 15.198 0 0 1-.328-.355A5.5 5.5 0 1 1 29.5 21c0 .475-.06.935-.173 1.375l-.029.108a.143.143 0 0 1-.005.017" fill="none" stroke="#0288D1" stroke-width="5" stroke-linecap="round" stroke-miterlimit="10"/><metadata><rdf:RDF xmlns:rdf="http://www.w3.org/1999/02/22-rdf-syntax-ns#" xmlns:rdfs="http://www.w3.org/2000/01/rdf-schema#" xmlns:dc="http://purl.org/dc/elements/1.1/"><rdf:Description about="https://iconscout.com/legal#licenses" dc:title="podio" dc:description="podio" dc:publisher="Iconscout" dc:date="2017-12-15" dc:format="image/svg+xml" dc:language="en"><dc:creator><rdf:Bag><rdf:li>Icons8</rdf:li></rdf:Bag></dc:creator></rdf:Description></rdf:RDF></metadata></svg>